<mxfile host="www.draw.io" modified="2020-01-11T04:35:19.137Z" agent="Mozilla/5.0 (Windows NT 10.0; Win64; x64) AppleWebKit/537.36 (KHTML, like Gecko) Chrome/79.0.3945.117 Safari/537.36" etag="zGXipTWSpbZokGyXapTn" version="12.5.1" type="github">
  <diagram name="Page-1" id="c9db0220-8083-56f3-ca83-edcdcd058819">
    <mxGraphModel dx="1264" dy="767" grid="1" gridSize="10" guides="1" tooltips="1" connect="1" arrows="1" fold="1" page="1" pageScale="1.5" pageWidth="826" pageHeight="1169" background="#ffffff" math="0" shadow="0">
      <root>
        <mxCell id="0" style=";html=1;"/>
        <mxCell id="1" style=";html=1;" parent="0"/>
        <mxCell id="TS38FVxZl8F8GQCxT0lQ-6" value="" style="html=1;shadow=0;dashed=0;shape=mxgraph.bootstrap.rrect;rSize=5;fillColor=#fff2cc;strokeColor=#d6b656;" vertex="1" parent="1">
          <mxGeometry x="60" y="60" width="1080" height="40" as="geometry"/>
        </mxCell>
        <mxCell id="TS38FVxZl8F8GQCxT0lQ-7" value="Brand" style="html=1;shadow=0;dashed=0;shape=mxgraph.bootstrap.anchor;fontColor=#999999;fontSize=14;whiteSpace=wrap;resizeHeight=1;" vertex="1" parent="TS38FVxZl8F8GQCxT0lQ-6">
          <mxGeometry width="80" height="40" relative="1" as="geometry">
            <mxPoint as="offset"/>
          </mxGeometry>
        </mxCell>
        <mxCell id="TS38FVxZl8F8GQCxT0lQ-57" value="" style="rounded=0;whiteSpace=wrap;html=1;fillColor=#ffe6cc;strokeColor=#d79b00;" vertex="1" parent="1">
          <mxGeometry x="130" y="110" width="520" height="190" as="geometry"/>
        </mxCell>
        <mxCell id="TS38FVxZl8F8GQCxT0lQ-58" value="Label" style="html=1;shadow=0;dashed=0;shape=mxgraph.bootstrap.rrect;align=center;rSize=5;strokeColor=none;fillColor=#58B957;fontColor=#ffffff;fontStyle=1;whiteSpace=wrap;" vertex="1" parent="1">
          <mxGeometry x="190" y="140" width="60" height="20" as="geometry"/>
        </mxCell>
        <mxCell id="TS38FVxZl8F8GQCxT0lQ-62" value="Label" style="html=1;shadow=0;dashed=0;shape=mxgraph.bootstrap.rrect;align=center;rSize=5;strokeColor=none;fillColor=#58B957;fontColor=#ffffff;fontStyle=1;whiteSpace=wrap;" vertex="1" parent="1">
          <mxGeometry x="410" y="140" width="100" height="20" as="geometry"/>
        </mxCell>
        <mxCell id="TS38FVxZl8F8GQCxT0lQ-63" value="Label" style="html=1;shadow=0;dashed=0;shape=mxgraph.bootstrap.rrect;align=center;rSize=5;strokeColor=none;fillColor=#55BFE0;fontColor=#ffffff;fontStyle=1;whiteSpace=wrap;" vertex="1" parent="1">
          <mxGeometry x="260" y="170" width="50" height="20" as="geometry"/>
        </mxCell>
        <mxCell id="TS38FVxZl8F8GQCxT0lQ-64" value="Label" style="html=1;shadow=0;dashed=0;shape=mxgraph.bootstrap.rrect;align=center;rSize=5;strokeColor=none;fillColor=#EFAC43;fontColor=#ffffff;fontStyle=1;whiteSpace=wrap;" vertex="1" parent="1">
          <mxGeometry x="520" y="140" width="60" height="20" as="geometry"/>
        </mxCell>
        <mxCell id="TS38FVxZl8F8GQCxT0lQ-65" value="Label" style="html=1;shadow=0;dashed=0;shape=mxgraph.bootstrap.rrect;align=center;rSize=5;strokeColor=none;fillColor=#999999;fontColor=#ffffff;fontStyle=1;whiteSpace=wrap;fontSize=10;" vertex="1" parent="1">
          <mxGeometry x="260" y="140" width="60" height="20" as="geometry"/>
        </mxCell>
        <mxCell id="TS38FVxZl8F8GQCxT0lQ-66" value="Label" style="html=1;shadow=0;dashed=0;shape=mxgraph.bootstrap.rrect;align=center;rSize=5;strokeColor=none;fillColor=#0D5B9D;fontColor=#ffffff;fontStyle=1;whiteSpace=wrap;" vertex="1" parent="1">
          <mxGeometry x="330" y="140" width="70" height="20" as="geometry"/>
        </mxCell>
        <mxCell id="TS38FVxZl8F8GQCxT0lQ-67" value="Label" style="html=1;shadow=0;dashed=0;shape=mxgraph.bootstrap.rrect;align=center;rSize=5;strokeColor=none;fillColor=#EFAC43;fontColor=#ffffff;fontStyle=1;whiteSpace=wrap;fontSize=10;" vertex="1" parent="1">
          <mxGeometry x="190" y="170" width="60" height="20" as="geometry"/>
        </mxCell>
        <mxCell id="TS38FVxZl8F8GQCxT0lQ-69" value="&lt;font style=&quot;font-size: 45px&quot; color=&quot;#cccccc&quot;&gt;分类&lt;/font&gt;" style="text;html=1;strokeColor=none;fillColor=none;align=center;verticalAlign=middle;whiteSpace=wrap;rounded=0;" vertex="1" parent="1">
          <mxGeometry x="130" y="110" width="60" height="130" as="geometry"/>
        </mxCell>
        <mxCell id="TS38FVxZl8F8GQCxT0lQ-70" value="" style="rounded=0;whiteSpace=wrap;html=1;fillColor=#ffe6cc;strokeColor=#d79b00;" vertex="1" parent="1">
          <mxGeometry x="660" y="110" width="480" height="190" as="geometry"/>
        </mxCell>
        <mxCell id="TS38FVxZl8F8GQCxT0lQ-71" value="Label" style="html=1;shadow=0;dashed=0;shape=mxgraph.bootstrap.rrect;align=center;rSize=5;strokeColor=none;fillColor=#58B957;fontColor=#ffffff;fontStyle=1;whiteSpace=wrap;" vertex="1" parent="1">
          <mxGeometry x="720" y="140" width="60" height="20" as="geometry"/>
        </mxCell>
        <mxCell id="TS38FVxZl8F8GQCxT0lQ-72" value="Label" style="html=1;shadow=0;dashed=0;shape=mxgraph.bootstrap.rrect;align=center;rSize=5;strokeColor=none;fillColor=#58B957;fontColor=#ffffff;fontStyle=1;whiteSpace=wrap;" vertex="1" parent="1">
          <mxGeometry x="940" y="140" width="100" height="20" as="geometry"/>
        </mxCell>
        <mxCell id="TS38FVxZl8F8GQCxT0lQ-73" value="Label" style="html=1;shadow=0;dashed=0;shape=mxgraph.bootstrap.rrect;align=center;rSize=5;strokeColor=none;fillColor=#55BFE0;fontColor=#ffffff;fontStyle=1;whiteSpace=wrap;" vertex="1" parent="1">
          <mxGeometry x="725" y="170" width="50" height="20" as="geometry"/>
        </mxCell>
        <mxCell id="TS38FVxZl8F8GQCxT0lQ-74" value="Label" style="html=1;shadow=0;dashed=0;shape=mxgraph.bootstrap.rrect;align=center;rSize=5;strokeColor=none;fillColor=#EFAC43;fontColor=#ffffff;fontStyle=1;whiteSpace=wrap;" vertex="1" parent="1">
          <mxGeometry x="1050" y="140" width="60" height="20" as="geometry"/>
        </mxCell>
        <mxCell id="TS38FVxZl8F8GQCxT0lQ-75" value="Label" style="html=1;shadow=0;dashed=0;shape=mxgraph.bootstrap.rrect;align=center;rSize=5;strokeColor=none;fillColor=#999999;fontColor=#ffffff;fontStyle=1;whiteSpace=wrap;fontSize=10;" vertex="1" parent="1">
          <mxGeometry x="790" y="140" width="60" height="20" as="geometry"/>
        </mxCell>
        <mxCell id="TS38FVxZl8F8GQCxT0lQ-76" value="Label" style="html=1;shadow=0;dashed=0;shape=mxgraph.bootstrap.rrect;align=center;rSize=5;strokeColor=none;fillColor=#0D5B9D;fontColor=#ffffff;fontStyle=1;whiteSpace=wrap;" vertex="1" parent="1">
          <mxGeometry x="860" y="140" width="70" height="20" as="geometry"/>
        </mxCell>
        <mxCell id="TS38FVxZl8F8GQCxT0lQ-77" value="Label" style="html=1;shadow=0;dashed=0;shape=mxgraph.bootstrap.rrect;align=center;rSize=5;strokeColor=none;fillColor=#EFAC43;fontColor=#ffffff;fontStyle=1;whiteSpace=wrap;fontSize=10;" vertex="1" parent="1">
          <mxGeometry x="780" y="170" width="60" height="20" as="geometry"/>
        </mxCell>
        <mxCell id="TS38FVxZl8F8GQCxT0lQ-78" value="&lt;font color=&quot;#cccccc&quot;&gt;&lt;span style=&quot;font-size: 45px&quot;&gt;标签&lt;/span&gt;&lt;/font&gt;" style="text;html=1;strokeColor=none;fillColor=none;align=center;verticalAlign=middle;whiteSpace=wrap;rounded=0;" vertex="1" parent="1">
          <mxGeometry x="660" y="110" width="60" height="130" as="geometry"/>
        </mxCell>
        <mxCell id="TS38FVxZl8F8GQCxT0lQ-79" value="" style="rounded=0;whiteSpace=wrap;html=1;fillColor=none;" vertex="1" parent="1">
          <mxGeometry x="130" y="310" width="1010" height="500" as="geometry"/>
        </mxCell>
        <mxCell id="TS38FVxZl8F8GQCxT0lQ-80" value="" style="rounded=0;whiteSpace=wrap;html=1;fillColor=#fff2cc;strokeColor=#d6b656;" vertex="1" parent="1">
          <mxGeometry x="60" y="110" width="60" height="700" as="geometry"/>
        </mxCell>
        <mxCell id="TS38FVxZl8F8GQCxT0lQ-81" value="" style="rounded=0;whiteSpace=wrap;html=1;fillColor=#f5f5f5;strokeColor=#666666;fontColor=#333333;" vertex="1" parent="1">
          <mxGeometry x="60" y="820" width="1080" height="150" as="geometry"/>
        </mxCell>
        <mxCell id="TS38FVxZl8F8GQCxT0lQ-82" value="" style="rounded=0;whiteSpace=wrap;html=1;fillColor=#dae8fc;strokeColor=#6c8ebf;" vertex="1" parent="1">
          <mxGeometry x="140" y="320" width="990" height="240" as="geometry"/>
        </mxCell>
        <mxCell id="TS38FVxZl8F8GQCxT0lQ-83" value="" style="rounded=0;whiteSpace=wrap;html=1;fillColor=#dae8fc;strokeColor=#6c8ebf;" vertex="1" parent="1">
          <mxGeometry x="140" y="580" width="990" height="220" as="geometry"/>
        </mxCell>
      </root>
    </mxGraphModel>
  </diagram>
</mxfile>
